<?xml version="1.0" encoding="UTF-8"?>
<svg width="1440px" height="804px" viewBox="0 0 1440 804" version="1.1" xmlns="http://www.w3.org/2000/svg" xmlns:xlink="http://www.w3.org/1999/xlink">
    <!-- Generator: Sketch 50.2 (55047) - http://www.bohemiancoding.com/sketch -->
    <title>background</title>
    <desc>Created with Sketch.</desc>
    <defs></defs>
    <g id="Page-1" stroke="none" stroke-width="1" fill="none" fill-rule="evenodd">
        <g id="landingpage">
            <g id="background" transform="translate(-150.000000, -142.000000)">
                <rect id="Rectangle" fill="#FBF7F3" x="144" y="142" width="1446" height="804"></rect>
                <path d="M1455.0574,119.557395 C1410.39073,164.455333 1410.39073,213.860925 1455.0574,267.774172 C1499.72406,321.687419 1499.72406,377.281826 1455.0574,434.557395" id="Line" stroke="#FAF0E3" stroke-width="80" stroke-linecap="round" stroke-linejoin="bevel" transform="translate(1455.057395, 277.057395) rotate(225.000000) translate(-1455.057395, -277.057395) "></path>
                <path d="M898.057395,701.557395 C853.390729,746.455333 853.390729,795.860925 898.057395,849.774172 C942.724062,903.687419 942.724062,959.281826 898.057395,1016.5574" id="Line" stroke="#FAF0E3" stroke-width="80" stroke-linecap="round" stroke-linejoin="bevel" transform="translate(898.057395, 859.057395) rotate(135.000000) translate(-898.057395, -859.057395) "></path>
                <circle id="Oval" stroke="#FAF0E3" stroke-width="135" cx="969.5" cy="186.5" r="186.5"></circle>
                <path d="M459.164448,815.988152 L571.509042,965.954898 C575.482539,971.259045 574.403833,978.780062 569.099685,982.753558 C567.023494,984.308895 564.499189,985.149549 561.905033,985.149549 L337.215845,985.149549 C330.588428,985.149549 325.215845,979.776966 325.215845,973.149549 C325.215845,970.555393 326.056499,968.031089 327.611836,965.954898 L439.95643,815.988152 C443.929927,810.684004 451.450943,809.605298 456.755091,813.578795 C457.668723,814.263224 458.480019,815.07452 459.164448,815.988152 Z" id="Triangle" stroke="#FAF0E3" stroke-width="70" transform="translate(449.560795, 898.165821) rotate(50.000000) translate(-449.560795, -898.165821) "></path>
                <circle id="Oval" stroke="#FAF0E3" stroke-width="85" cx="1354" cy="860" r="101"></circle>
                <circle id="Oval" fill="#FAF0E3" cx="101" cy="769" r="101"></circle>
                <path d="M337.199872,42.0887766 L449.544466,192.055522 C453.517963,197.35967 452.439257,204.880686 447.135109,208.854183 C445.058918,210.40952 442.534613,211.250174 439.940457,211.250174 L215.251269,211.250174 C208.623852,211.250174 203.251269,205.877591 203.251269,199.250174 C203.251269,196.656018 204.091923,194.131714 205.64726,192.055522 L317.991854,42.0887766 C321.965351,36.7846289 329.486367,35.7059229 334.790515,39.6794193 C335.704147,40.3638486 336.515443,41.1751443 337.199872,42.0887766 Z" id="Triangle" stroke="#FAF0E3" stroke-width="70" transform="translate(327.596219, 124.266445) rotate(-20.000000) translate(-327.596219, -124.266445) "></path>
                <path d="M1656.84919,739.015373 C1829.82543,739.015373 1894.20567,678.918965 1894.20567,604.78629 C1894.20567,530.653615 1829.82543,470.557207 1656.84919,470.557207 C1483.87295,470.557207 1392.91218,530.653615 1392.91218,604.78629 C1392.91218,678.918965 1483.87295,739.015373 1656.84919,739.015373 Z" id="Oval-3" fill="#FAF0E3" transform="translate(1643.558925, 604.786290) rotate(9.000000) translate(-1643.558925, -604.786290) "></path>
                <path d="M517.816791,531.279765 C497.009941,470.120681 439.089092,426.122323 370.891876,426.122323 C302.694659,426.122323 244.77381,470.120681 223.96696,531.279765 L517.816797,531.279765 Z" id="Oval" stroke="#FAF0E3" stroke-width="100" fill="#FAF0E3" transform="translate(370.891876, 478.701044) scale(-1, 1) rotate(-35.000000) translate(-370.891876, -478.701044) "></path>
            </g>
        </g>
    </g>
</svg>